<?xml version="1.0" standalone="no"?>
<!DOCTYPE svg PUBLIC "-//W3C//DTD SVG 20010904//EN"
 "http://www.w3.org/TR/2001/REC-SVG-20010904/DTD/svg10.dtd">
<svg version="1.0" xmlns="http://www.w3.org/2000/svg"
 width="600.000000pt" height="603.000000pt" viewBox="0 0 600.000000 603.000000"
 preserveAspectRatio="xMidYMid meet">
<g transform="translate(0.000000,603.000000) scale(0.050000,-0.050000)"
fill="#ff6b4a" stroke="none">
<path d="M8210 10096 c-130 -27 -144 -34 -109 -59 23 -17 22 -19 -8 -9 -41 14
-120 -33 -98 -58 8 -9 3 -10 -11 -1 -38 21 -94 -29 -60 -54 19 -14 17 -16 -7
-8 -35 11 -97 -43 -97 -85 0 -13 -8 -20 -17 -14 -10 6 -43 -44 -73 -112 -257
-571 349 -1178 912 -913 132 62 251 181 242 244 -4 33 -1 36 13 15 16 -23 28
-15 61 40 43 70 58 132 20 78 -18 -25 -20 -24 -10 7 7 20 12 45 12 56 0 11 9
14 19 7 62 -38 53 370 -9 421 -22 18 -29 26 -15 19 36 -18 31 11 -18 90 -39
64 -44 67 -58 30 -16 -39 -16 -38 -18 3 0 24 -8 47 -16 52 -8 5 -2 5 13 1 22
-6 23 -1 3 23 -14 17 -35 25 -46 18 -12 -7 -15 -4 -8 8 59 96 -401 246 -617
201z"/>
<path d="M4877 9845 l-573 -6 -22 -62 c-29 -83 -30 -140 -2 -97 15 24 19 20
19 -20 0 -65 -37 -129 -41 -70 -1 22 -10 4 -20 -40 -10 -44 -23 -101 -29 -127
-6 -25 -2 -41 8 -35 10 6 17 -44 15 -117 -1 -70 -10 -122 -19 -117 -10 6 -11
48 -4 93 7 45 6 75 -2 66 -21 -21 -129 -558 -118 -587 5 -14 0 -30 -11 -37
-13 -8 -12 -23 4 -41 13 -16 18 -35 11 -42 -7 -7 -13 0 -13 16 -1 23 -4 23
-19 -1 -13 -20 -11 -35 5 -45 46 -29 58 -16 50 53 -4 39 2 73 13 78 12 5 21
-22 21 -65 0 -72 0 -72 90 -75 l90 -2 -90 14 c-63 11 -15 15 160 15 175 0 223
-4 160 -15 l-90 -14 88 2 c103 3 288 199 269 283 -9 43 3 58 153 184 50 42 77
58 60 36 -16 -22 -43 -51 -60 -64 -16 -14 -21 -25 -10 -25 11 -1 43 19 70 44
28 25 93 81 145 123 70 57 93 87 84 114 -14 46 26 124 54 106 14 -9 12 -19 -5
-29 -31 -19 -24 -29 33 -47 23 -7 56 -1 73 13 37 29 74 168 38 146 -13 -8 -17
-2 -10 18 7 17 19 27 27 22 8 -5 13 17 11 49 -2 32 4 54 13 48 9 -6 17 10 17
36 0 25 4 64 7 86 4 22 3 29 -1 15 -19 -53 -49 -23 -36 35 8 36 5 60 -7 60
-11 0 -23 -13 -27 -28 -5 -24 -10 -24 -31 -1 -21 23 -16 30 28 41 39 10 60 4
80 -23 15 -20 27 -28 27 -17 0 32 -45 68 -79 63 -17 -2 -289 -7 -604 -10z
m-595 -454 c10 -10 17 -42 16 -70 -1 -46 -4 -44 -28 19 -15 39 -26 93 -26 120
l1 50 9 -50 c5 -27 18 -59 28 -69z m79 49 c22 0 39 -9 39 -20 0 -11 -17 -20
-38 -20 -37 0 -64 40 -60 87 2 12 7 7 12 -12 5 -19 26 -35 47 -35z m857 -215
c-50 -65 -98 -107 -98 -84 0 13 -16 16 -40 9 -21 -7 -54 -4 -71 5 -22 13 -6
18 55 17 71 -2 89 6 106 43 11 25 32 45 47 45 23 0 24 -6 1 -35z m-1071 -380
c-7 -52 -20 -104 -30 -114 -16 -18 -12 33 15 164 16 83 27 46 15 -50z m636
-59 c-24 -20 -60 -66 -79 -103 l-36 -68 -248 4 c-137 2 -253 7 -258 12 -5 5
105 9 245 9 244 0 350 29 168 46 -84 7 -84 8 11 7 86 -1 100 6 133 61 21 34
50 66 64 71 45 16 45 -2 0 -39z"/>
<path d="M6030 9180 c-496 -75 -875 -361 -1346 -1015 -128 -177 -129 -165 22
-165 194 0 344 48 527 169 482 320 828 396 1231 271 170 -52 168 -46 95 -243
-294 -802 -1101 -1656 -1707 -1808 -29 -8 -46 -23 -39 -34 7 -12 4 -15 -7 -8
-12 7 -93 -9 -181 -36 -719 -215 -1731 -289 -2495 -183 -254 36 -256 30 -16
-45 677 -213 1501 -286 2286 -203 206 22 740 123 731 139 -4 6 29 12 74 14 44
2 86 11 93 20 24 33 77 15 153 -51 204 -180 438 -292 996 -480 450 -152 505
-177 626 -274 311 -252 106 -796 -548 -1453 -246 -248 -252 -269 -61 -207 47
15 113 34 146 41 458 103 1058 609 1308 1104 391 775 97 1359 -857 1702 l-68
24 244 233 c327 311 666 735 632 789 -19 32 -73 -22 -59 -59 7 -17 6 -25 -1
-17 -7 7 -54 -28 -103 -77 -77 -79 -93 -87 -122 -64 -31 23 -31 22 -6 -9 15
-20 21 -42 13 -50 -8 -8 -23 1 -33 20 -22 39 -58 47 -58 14 0 -12 9 -16 20 -9
50 31 13 -72 -42 -118 -70 -59 -79 -61 -118 -27 -24 21 -24 20 -2 -10 28 -36
-34 -113 -91 -114 -12 -1 -28 -14 -34 -30 -6 -16 -48 -39 -93 -51 -44 -12 -76
-30 -70 -40 17 -28 -80 -82 -122 -69 -28 10 -31 8 -11 -7 38 -27 -4 -50 -62
-34 -30 8 -36 7 -19 -6 38 -26 -152 -136 -514 -298 -61 -27 -113 -40 -120 -30
-7 11 -43 24 -82 31 -38 7 -59 7 -45 1 38 -17 30 -48 -13 -48 -63 0 -86 115
-32 160 25 21 30 17 30 -28 0 -33 11 -52 31 -52 24 0 26 8 9 41 -12 22 -21 56
-19 75 7 64 -1 79 -43 90 -54 15 -38 66 19 59 26 -3 43 7 43 24 0 32 69 60
100 41 11 -7 20 -3 20 9 0 12 -14 28 -30 34 -26 10 -23 18 13 49 58 51 32 73
-34 29 -29 -19 -56 -30 -61 -26 -5 5 47 43 114 85 99 61 126 70 142 48 13 -20
15 -14 5 20 -9 32 -6 43 9 33 12 -7 28 1 34 18 7 17 21 31 32 31 11 0 45 20
74 45 30 25 80 63 111 85 31 22 87 66 124 97 37 32 80 52 95 47 15 -6 49 11
74 38 25 27 57 45 71 40 15 -6 21 1 14 19 -15 40 -25 37 -79 -21 -25 -27 -57
-50 -69 -50 -13 0 53 80 147 179 93 98 208 233 255 300 47 66 93 121 104 121
10 0 15 11 10 25 -10 31 28 73 56 62 27 -11 72 83 58 119 -6 15 16 80 49 145
54 107 92 128 41 23 -20 -43 -20 -43 10 -5 17 21 31 50 31 63 0 14 5 41 12 61
10 31 8 32 -10 7 -29 -41 -27 -23 10 88 30 87 35 92 67 63 19 -17 47 -31 63
-30 18 0 14 8 -12 23 -22 12 -76 52 -121 89 -361 292 -1142 499 -1619 427z
m130 -2363 c0 -25 -28 -21 -56 7 -20 20 -33 20 -64 0 -22 -13 -51 -24 -65 -24
-14 0 2 17 35 37 59 36 150 24 150 -20z"/>
<path d="M4893 8927 c-30 -29 -49 -58 -43 -64 6 -6 35 13 65 42 29 30 48 59
42 65 -6 6 -35 -13 -64 -43z"/>
<path d="M9629 8858 c-7 -11 -11 -202 -10 -425 l2 -406 -115 -109 c-140 -133
-270 -224 -418 -291 l-110 -51 -324 330 c-316 322 -447 433 -394 333 14 -24
15 -38 4 -31 -11 7 -24 5 -29 -3 -5 -8 -6 -3 -2 11 4 14 -1 21 -11 15 -9 -6
-14 -53 -10 -106 l8 -95 -29 60 c-20 41 -29 49 -30 24 -1 -20 9 -56 22 -80 22
-43 22 -43 -17 -9 -47 42 -66 44 -66 7 0 -15 20 -33 44 -39 l44 -11 -49 -54
c-27 -30 -38 -48 -24 -40 16 9 21 4 13 -17 -7 -17 -20 -26 -29 -21 -9 6 -19
-9 -23 -33 -3 -24 -18 -48 -32 -52 -19 -7 -22 6 -12 48 7 31 8 51 0 45 -21
-20 -31 -140 -11 -127 10 6 13 -3 7 -20 -7 -17 -20 -31 -30 -31 -10 0 -18 -12
-18 -26 0 -15 -16 -44 -36 -65 -74 -80 -67 -99 72 -212 644 -518 929 -600
1306 -377 230 136 588 562 778 925 l50 95 160 2 c88 1 198 0 245 -2 l85 -3 0
432 0 433 -500 -3 c-285 -2 -505 -11 -511 -21z"/>
<path d="M7908 8535 c47 -46 122 -95 143 -95 7 0 -29 32 -80 70 -105 80 -130
90 -63 25z"/>
<path d="M2490 8140 c-10 -16 -310 -1461 -310 -1492 0 -5 369 -8 820 -8 l819
0 10 45 c5 25 19 95 31 155 12 61 44 214 71 340 151 725 189 912 189 944 0 33
-26 36 -316 36 l-316 0 -58 -295 c-79 -403 -67 -381 -156 -292 l-74 74 -104
-73 c-132 -91 -128 -108 -57 226 86 403 114 360 -238 360 -177 0 -304 -8 -311
-20z"/>
<path d="M5580 7876 c-104 -67 -383 -243 -620 -391 -236 -148 -433 -272 -436
-275 -4 -3 86 -27 199 -53 l205 -47 -97 -110 c-53 -61 -148 -168 -212 -240
-275 -309 -301 -314 356 70 471 275 611 364 591 375 -9 5 -90 26 -181 46 -91
20 -165 42 -165 48 0 13 117 158 325 402 86 100 151 190 144 200 -6 10 1 14
15 9 14 -5 42 13 62 41 52 72 25 61 -186 -75z"/>
<path d="M6320 6815 c0 -17 -15 -35 -33 -39 -30 -5 -30 -8 -2 -32 41 -34 95
44 57 82 -16 16 -22 13 -22 -11z"/>
<path d="M6180 6496 c0 -51 67 -80 124 -55 46 20 46 20 -4 10 -36 -7 -60 2
-85 34 -28 38 -34 39 -35 11z"/>
<path d="M5050 5748 c-611 -549 -1475 -844 -2600 -885 l-360 -13 223 -84
c1374 -517 2722 -325 3742 534 173 146 174 149 40 181 -200 47 -506 159 -705
259 -240 120 -217 120 -340 8z"/>
<path d="M4880 3388 c-1548 -61 -2647 -218 -3625 -516 -129 -40 -239 -72 -245
-72 -94 0 407 -634 823 -1041 2641 -2588 6864 -2205 9025 818 169 237 185 272
127 289 -914 267 -1779 409 -3015 495 -286 20 -2732 41 -3090 27z m1968 -640
c18 -7 32 -34 32 -60 0 -47 4 -48 169 -48 219 0 251 -32 250 -248 -1 -369 -46
-492 -180 -492 -116 0 -172 121 -63 137 73 10 121 303 72 431 -19 49 -323 46
-360 -3 -43 -57 -34 -65 78 -65 159 0 194 -34 194 -186 -1 -167 -45 -214 -201
-214 -70 0 -91 -185 -28 -249 65 -64 328 -43 355 29 54 143 194 83 153 -66
-34 -123 -77 -143 -316 -150 -357 -10 -398 46 -373 507 l14 262 -52 34 c-49
32 -52 32 -52 0 0 -46 -58 -107 -103 -107 -29 0 -37 -15 -37 -70 0 -64 5 -70
59 -70 41 0 62 -12 71 -41 17 -53 -22 -99 -82 -99 -43 0 -48 -9 -48 -82 0 -74
4 -82 42 -72 86 23 140 -67 73 -121 -57 -46 -453 -132 -484 -105 -39 32 -40
88 -1 120 23 19 30 70 30 211 0 168 4 188 40 199 68 21 80 -7 80 -183 0 -151
4 -169 35 -163 31 6 35 33 35 236 l0 230 -70 7 c-110 10 -120 29 -120 219 0
230 13 244 233 244 210 0 247 -28 247 -182 0 -122 28 -112 114 40 111 196 115
200 194 170z m-3060 -40 c7 -17 12 -255 12 -529 l0 -498 -58 -65 c-107 -120
-402 -87 -402 46 0 69 46 97 135 83 122 -18 125 -8 125 479 0 264 8 454 21
477 26 49 149 55 167 7z m1573 -10 c54 -100 -48 -209 -151 -162 -59 27 -69
122 -19 173 47 46 143 40 170 -11z m2710 -6 c36 -27 39 -60 45 -472 6 -408 9
-442 40 -429 78 34 158 30 254 -13 77 -34 154 -47 330 -56 l230 -12 6 -54 c14
-118 -358 -137 -570 -29 -121 61 -151 65 -187 22 -17 -21 -43 -27 -75 -19 -31
7 -56 1 -71 -18 -41 -53 -163 -49 -192 7 -28 51 -7 100 52 122 l47 18 0 398
c0 425 -7 455 -95 421 -65 -24 -62 -122 5 -166 28 -18 50 -46 50 -62 0 -16
-22 -44 -50 -62 -63 -41 -71 -146 -11 -162 72 -19 72 -113 1 -136 -27 -8 -40
-40 -49 -116 -26 -214 -35 -256 -64 -284 -76 -76 -138 -5 -108 121 13 55 29
284 34 509 13 504 12 500 204 500 85 0 150 -10 174 -28z m234 0 c89 -89 89
-215 -1 -228 -75 -11 -149 168 -93 225 39 38 58 39 94 3z m595 -12 c34 -34 40
-67 40 -209 0 -251 -32 -298 -200 -288 -163 9 -163 9 -156 -118 5 -97 13 -118
51 -135 94 -41 40 -130 -78 -130 -110 0 -117 26 -117 459 0 472 -6 461 250
461 143 0 176 -6 210 -40z m-3590 -313 c19 -19 29 -50 23 -72 -6 -22 -26 -179
-46 -350 -38 -339 -61 -386 -177 -357 -62 16 -64 80 -13 475 43 330 102 415
213 304z m-1921 -18 c44 -44 41 -58 -55 -247 -104 -208 -168 -264 -243 -215
-55 37 -69 114 -26 149 14 11 56 82 94 157 101 202 150 235 230 156z m790 -23
c93 -117 186 -339 162 -383 -24 -45 -104 -76 -140 -53 -37 22 -216 398 -205
430 26 77 125 80 183 6z m4187 -25 c38 -35 6 -411 -36 -417 -84 -12 -110 35
-92 163 15 110 13 118 -31 138 -51 23 -63 91 -23 131 24 24 150 14 182 -15z
m415 -183 c21 -39 24 -39 59 -8 20 18 53 30 74 27 53 -11 56 -86 4 -135 -42
-39 -43 -44 -11 -78 80 -89 -12 -184 -99 -102 -54 51 -148 228 -148 280 0 64
89 76 121 16z"/>
<path d="M6264 2584 c-65 -7 -66 -8 -60 -100 l6 -94 80 0 c73 0 81 5 91 60 22
119 -1 146 -117 134z"/>
<path d="M6780 2203 c0 -67 43 -93 103 -62 65 35 41 108 -38 115 -60 6 -65 2
-65 -53z"/>
<path d="M8588 2572 c-18 -47 9 -72 75 -72 86 0 75 -85 -13 -100 -99 -17 -83
-88 22 -96 109 -8 132 23 124 169 l-6 117 -95 6 c-71 5 -98 -2 -107 -24z"/>
</g>
</svg>
